<?xml version="1.0" standalone="no"?>
<!DOCTYPE svg PUBLIC "-//W3C//DTD SVG 20010904//EN"
 "http://www.w3.org/TR/2001/REC-SVG-20010904/DTD/svg10.dtd">
<svg version="1.0" xmlns="http://www.w3.org/2000/svg"
 width="940.000000pt" height="1280.000000pt" viewBox="0 0 940.000000 1280.000000"
 preserveAspectRatio="xMidYMid meet">
<metadata>
Created by potrace 1.15, written by Peter Selinger 2001-2017
</metadata>
<g transform="translate(0.000000,1280.000000) scale(0.100000,-0.100000)"
fill="#000000" stroke="none">
<path d="M5765 11878 c-730 -82 -1396 -514 -1975 -1283 -326 -433 -644 -1015
-796 -1460 -124 -360 -222 -913 -260 -1458 l-7 -98 49 -50 49 -50 180 6 c99 3
194 8 211 11 l31 4 7 108 c45 713 220 1401 498 1955 288 577 840 1235 1278
1525 248 164 511 252 750 252 332 -2 523 -146 602 -455 21 -82 23 -112 23
-345 -1 -343 -34 -596 -125 -960 -199 -794 -715 -1828 -1211 -2425 -108 -130
-533 -555 -724 -725 -82 -73 -258 -223 -390 -334 -485 -406 -693 -594 -1073
-970 -1093 -1082 -1644 -1959 -1768 -2813 -20 -141 -23 -390 -5 -463 33 -136
118 -234 228 -266 85 -25 231 -16 304 18 156 71 226 234 200 457 -7 53 -23
157 -36 231 -49 265 -56 330 -44 395 33 186 224 352 418 363 242 13 507 -164
851 -568 144 -169 369 -396 490 -493 272 -218 544 -359 825 -425 100 -24 129
-26 320 -27 169 0 227 4 295 19 282 62 558 203 810 414 223 187 473 474 665
762 135 204 208 333 326 575 118 244 189 422 284 710 110 334 247 891 221 901
-7 3 -90 27 -185 53 l-173 49 -57 -33 -56 -33 -44 -154 c-133 -466 -300 -815
-488 -1018 -304 -328 -794 -447 -1398 -339 -141 26 -234 49 -650 164 -513 143
-687 173 -1040 182 -287 8 -473 -16 -749 -97 -59 -17 -110 -30 -111 -28 -2 2
45 71 103 155 571 811 1165 1350 2697 2448 326 234 1230 919 1365 1034 176
150 507 493 710 736 433 517 698 1059 785 1610 23 140 31 489 15 623 -65 551
-371 1016 -875 1329 -236 147 -500 239 -798 278 -129 16 -419 18 -552 3z"/>
</g>
</svg>
