<?xml version="1.0" standalone="no"?>
<!DOCTYPE svg PUBLIC "-//W3C//DTD SVG 20010904//EN"
 "http://www.w3.org/TR/2001/REC-SVG-20010904/DTD/svg10.dtd">
<svg version="1.0" xmlns="http://www.w3.org/2000/svg"
 width="940.000000pt" height="1280.000000pt" viewBox="0 0 940.000000 1280.000000"
 preserveAspectRatio="xMidYMid meet">
<metadata>
Created by potrace 1.15, written by Peter Selinger 2001-2017
</metadata>
<g transform="translate(0.000000,1280.000000) scale(0.100000,-0.100000)"
fill="#000000" stroke="none">
<path d="M8645 12359 c-288 -246 -652 -400 -1080 -455 -153 -20 -561 -23 -696
-5 -153 20 -409 88 -929 246 -323 98 -399 118 -557 146 -191 33 -418 28 -705
-18 -36 -5 -40 -11 -133 -170 -297 -509 -854 -1306 -1535 -2196 l-82 -108 6
-50 c12 -87 15 -91 163 -176 76 -44 148 -85 160 -92 21 -11 43 15 399 461 207
260 408 506 448 547 92 95 211 184 281 210 80 30 161 27 455 -18 339 -53 427
-61 655 -61 362 0 648 46 977 158 194 67 328 123 701 296 43 20 75 32 72 26
-11 -18 -501 -407 -684 -543 -252 -187 -446 -330 -671 -492 -107 -78 -258
-191 -335 -251 -77 -60 -239 -180 -360 -266 -443 -317 -762 -576 -990 -803
-172 -171 -260 -283 -319 -405 -35 -72 -42 -97 -45 -162 -5 -112 16 -167 93
-244 70 -69 130 -95 222 -95 120 0 202 68 351 293 243 364 472 552 719 588
167 24 329 -28 456 -148 58 -55 77 -82 118 -166 84 -177 110 -317 110 -604 0
-378 -68 -751 -222 -1222 -399 -1216 -1222 -2527 -2237 -3562 -404 -413 -719
-674 -1170 -973 -453 -300 -1003 -612 -1687 -957 l-240 -122 94 -220 c52 -122
96 -223 98 -225 11 -12 707 303 969 438 1688 874 2640 1457 3415 2090 940 769
1626 1595 2078 2501 330 661 482 1251 482 1867 0 424 -87 741 -287 1042 -86
130 -290 329 -433 424 -283 187 -628 306 -1013 348 -60 7 -105 15 -100 19 4 4
127 92 273 195 545 386 1273 926 1580 1172 218 175 474 409 1120 1023 113 107
254 240 313 294 59 55 107 103 107 107 0 6 -329 380 -333 379 -1 -1 -33 -28
-72 -61z"/>
</g>
</svg>
